<svg width="131" height="32" viewBox="0 0 131 32" fill="none" xmlns="http://www.w3.org/2000/svg">
<g clip-path="url(#clip0_415_1322)">
<mask id="mask0_415_1322" style="mask-type:alpha" maskUnits="userSpaceOnUse" x="0" y="0" width="131" height="32">
<path d="M131 0H0V32H131V0Z" fill="white"/>
</mask>
<g mask="url(#mask0_415_1322)">
<path fill-rule="evenodd" clip-rule="evenodd" d="M104.941 10.1019C106.306 10.1019 107.696 10.1019 109.057 10.0683C109.198 10.6891 109.274 11.3225 109.285 11.9595C109.252 18.4447 109.285 24.9299 109.252 31.4534C107.792 31.487 106.363 31.487 104.902 31.487C104.909 24.359 104.874 17.2299 104.94 10.1019H104.941ZM64.0729 10.1019H68.3894C68.5225 14.8987 68.2574 19.6618 68.5225 24.4621C68.6898 28.1448 73.5696 29.2588 76.0584 27.165C77.3398 26.0313 78.0374 24.3625 77.9509 22.6369C77.985 18.4482 77.9179 14.293 77.985 10.1031H82.3333C82.3333 17.2658 82.3663 24.4273 82.3333 31.6225C80.9381 31.6225 79.5111 31.59 78.1239 31.4545V27.9803C77.053 30.2548 74.8806 31.7834 72.4122 32H70.5197C68.5658 31.8124 66.7746 30.8083 65.5728 29.2299C64.4747 27.5576 63.9489 25.5622 64.0786 23.5553L64.0729 10.1019ZM116.362 11.216C119.539 9.33179 123.439 9.21714 126.718 10.9114C129.126 12.2548 130.727 14.7192 131 17.4997C129.634 17.5333 128.278 17.5333 126.918 17.5333C126.574 16.359 125.932 15.2982 125.057 14.4586C123.603 13.4337 121.766 13.1465 120.077 13.6815C117.986 14.3567 116.791 16.5536 116.426 18.6462C116.093 21.2148 116.159 24.1204 117.754 26.249C119.543 28.4957 122.742 28.9404 125.057 27.2635C125.927 26.4505 126.557 25.4082 126.878 24.2525C128.245 24.2525 129.6 24.2525 130.961 24.286C130.696 28.5096 126.911 31.6514 122.927 31.9548H120.644C118.263 31.7197 116.046 30.6149 114.402 28.8466C112.528 26.4632 111.613 23.4441 111.845 20.4007C111.883 16.8929 113.34 13.1419 116.362 11.216ZM87.9767 11.2831C91.187 9.35379 95.1438 9.2264 98.4691 10.945C100.454 12.0706 101.714 14.1749 101.787 16.4864H97.8045C97.5575 15.6317 97.1399 14.8373 96.5766 14.1552C95.3225 13.1731 93.6929 12.8361 92.1623 13.2426C90.8991 13.5472 89.472 14.5258 89.6382 16.0127C89.5062 17.1951 90.5349 17.971 91.4977 18.308C93.8863 19.187 96.4776 19.3515 98.8002 20.3358C100.144 20.8037 101.246 21.802 101.855 23.1071C102.853 25.5935 102.075 28.454 99.9633 30.066C98.5339 31.1106 96.8645 31.7638 95.1154 31.9583H91.9608C89.9067 31.707 87.9915 30.7701 86.5178 29.2947C85.5664 28.1436 84.9655 26.7354 84.7903 25.2415C86.2185 25.2415 87.6455 25.275 89.0749 25.377C89.4288 26.7493 90.42 27.8587 91.7287 28.3497C93.5495 28.7551 95.879 28.857 97.3049 27.4036C98.1868 26.4864 98.1721 25.0145 97.2708 24.117C97.1114 23.9583 96.9316 23.8251 96.7359 23.7209C93.5495 22.2003 89.5312 22.6045 86.8421 20.0046C84.3567 17.6016 85.1214 13.0747 87.9755 11.2843L87.9767 11.2831ZM7.17055 7.70237C9.42835 7.29705 11.4199 8.68211 13.5775 9.05385C15.602 8.61378 17.5286 7.3978 19.6533 7.60046C22.0374 7.61783 24.285 8.73654 25.761 10.6416C23.329 12.0857 21.9725 14.8605 22.3083 17.7058C22.4744 20.3416 24.4705 22.3382 26.6247 23.5159C25.4628 26.4899 23.8685 29.5646 21.2135 31.4221C18.5574 33.1442 15.8649 30.0313 13.0802 30.747C11.685 31.0168 10.4241 31.6236 9.03005 31.9965H7.93415C7.02034 31.6387 6.18504 31.0979 5.47834 30.4088C2.42281 27.1465 0.498445 22.9577 0 18.4806V16.1158C0.264017 12.1285 3.15227 8.2432 7.16941 7.70237H7.17055ZM30.841 2.12855H35.9859C39.2065 9.96642 42.3269 17.8703 45.4814 25.7776C48.7349 17.9398 51.7893 10.0012 55.0099 2.16213H60.1548C60.1878 11.9595 60.1548 21.7232 60.1548 31.5206C58.7892 31.5206 57.4327 31.5206 56.1047 31.5541C56.0386 24.3903 56.1707 17.2299 56.0386 10.1008C55.7405 10.6416 55.4696 11.2148 55.209 11.7892C52.5916 18.3775 49.8968 24.9311 47.243 31.5194C46.0811 31.5194 44.9192 31.553 43.7573 31.4522C40.9681 24.2224 37.9478 17.128 35.1256 9.93167C34.9594 17.128 35.0926 24.2907 35.0596 31.4847C33.6655 31.5194 32.2703 31.5194 30.849 31.5194C30.841 21.6885 30.808 11.8888 30.841 2.12855ZM105.904 1.92588C107.111 1.2623 108.619 1.71975 109.272 2.94962C109.511 3.40012 109.611 3.91546 109.557 4.42501C109.489 5.81471 108.19 6.51998 107.033 6.82455C106.358 6.652 105.74 6.30226 105.239 5.81123C104.326 4.80602 104.387 3.23798 105.373 2.30921C105.534 2.15866 105.711 2.03127 105.905 1.92936L105.904 1.92588ZM19.354 0H20.0516C20.1847 3.78344 17.1304 7.66879 13.2463 7.60162C13.2555 3.91546 15.8057 0.74117 19.354 0Z" fill="#080808"/>
</g>
</g>
<defs>
<clipPath id="clip0_415_1322">
<rect width="131" height="32" fill="white"/>
</clipPath>
</defs>
</svg>
