<svg width="146" height="28" viewBox="0 0 146 28" fill="none" xmlns="http://www.w3.org/2000/svg">
<g clip-path="url(#clip0_415_1386)">
<path fill-rule="evenodd" clip-rule="evenodd" d="M140.568 9.06429C138.611 8.96735 136.801 10.1 136.027 11.9051V9.06429H130.918V27.999H136.027V15.799C136.027 13.8663 137.065 12.7969 138.655 12.7969C140.078 12.9122 141.144 14.152 141.051 15.5806V16.1224H146V14.6765C146 11.4255 143.97 9.06429 140.568 9.06429ZM7.56283 17.8071H13.8265V14.1306H7.56283V17.8071ZM7.56283 22.9031H13.8265V19.2276H7.56283V22.9031ZM15.1399 22.9031H21.4036V19.2276H15.1399V22.9031ZM22.7027 28H28.9664V24.3245H22.7027V28ZM15.1399 28H21.4036V24.3245H15.1399V28ZM7.56283 28H13.8265V24.3245H7.56283V28ZM0 28H6.2637V24.3245H0V28ZM22.7027 22.9031H28.9664V19.2276H22.7027V22.9031ZM22.7027 17.8071H28.9664V14.1306H22.7027V17.8071ZM22.7027 12.7112H28.9664V9.03469H22.7027V12.7112ZM120.275 12.7449C122.553 12.7449 124.1 13.9745 124.1 15.9082L124.069 16.0694H115.966C116.41 14.0602 118.225 12.6592 120.275 12.7449ZM120.947 24.0061C118.246 24.0061 116.026 22.3663 115.967 19.4663H128.772C128.935 18.7061 129.015 17.9296 129.007 17.152C129.007 11.9531 125.472 9.02449 120.256 9.02449C115.29 8.80714 111.088 12.6684 110.872 17.65C110.86 17.8939 110.859 18.1388 110.87 18.3827C110.87 24.3867 115.089 27.9888 120.928 27.9888C125.337 27.9888 128.331 26.1439 129.645 22.4684L125.327 20.7551C124.904 22.798 123.019 24.1969 120.947 24.0061ZM110.183 13.2531V9.03571H93.7622V13.4286H103.792L93.4407 23.6071V28H110.478V23.3867H99.8061L110.183 13.2531ZM83.8188 12.7449C86.0966 12.7449 87.644 13.9745 87.644 15.9082L87.6144 16.0694H79.5104C79.9529 14.0602 81.7689 12.6592 83.8188 12.7449ZM84.4902 24.0061C81.7902 24.0061 79.5714 22.3663 79.5114 19.4663H92.3155C92.4793 18.7061 92.5576 17.9296 92.5505 17.152C92.5505 11.9531 89.0173 9.02449 83.8015 9.02449C78.8339 8.80714 74.6323 12.6684 74.4156 17.65C74.4044 17.8939 74.4044 18.1388 74.4136 18.3827C74.4136 24.3867 78.6324 27.9888 84.4719 27.9888C88.881 27.9888 91.875 26.1439 93.1894 22.4684L88.8708 20.7551C88.4476 22.798 86.5625 24.1969 84.4902 24.0061ZM64.9687 12.7449C67.2475 12.7449 68.7949 13.9745 68.7949 15.9082L68.7644 16.0694H60.6623C61.1049 14.0602 62.9198 12.6592 64.9687 12.7449ZM65.6422 24.0061C62.9401 24.0061 60.7224 22.3663 60.6634 19.4663H73.4675C73.6302 18.7061 73.7086 17.9296 73.7004 17.152C73.7004 11.9531 70.1683 9.02449 64.9514 9.02449C59.9858 8.80714 55.7832 12.6684 55.5665 17.65C55.5564 17.8939 55.5553 18.1388 55.5635 18.3827C55.5635 24.3867 59.7844 27.9888 65.6239 27.9888C70.033 27.9888 73.0249 26.1439 74.3393 22.4684L70.0208 20.7551C69.5975 22.798 67.7134 24.1969 65.6422 24.0061ZM49.2886 18.5837C49.2886 21.9367 47.0118 24.0316 44.2813 24.0316C41.448 24.0316 39.273 21.9378 39.273 18.5837C39.273 15.1714 41.4633 13.0337 44.2813 13.0337C47.0118 13.0337 49.2886 15.2041 49.2886 18.5837ZM49.1329 11.8908C47.9783 9.92857 45.848 9.05 43.1765 9.05C37.9484 9.03571 34.1833 12.6214 34.1833 18.5837H34.1772C34.1772 24.4561 37.7846 27.9714 43.1419 27.9714C45.8134 27.9714 48.0617 27.2245 49.3191 25.2622V27.9714H54.2094V0H49.1329V11.8908Z" fill="#080808"/>
</g>
<defs>
<clipPath id="clip0_415_1386">
<rect width="146" height="28" fill="white"/>
</clipPath>
</defs>
</svg>
