<svg width="176" height="48" viewBox="0 0 176 48" fill="none" xmlns="http://www.w3.org/2000/svg">
<path fill-rule="evenodd" clip-rule="evenodd" d="M27.8725 15.9271C28.3035 14.7634 29.2374 13.8907 30.3149 13.5271C32.039 12.9453 33.9068 13.4544 35.0562 14.8362C35.6309 15.7089 35.9182 16.7271 35.7745 17.7453C35.7745 21.3089 35.7745 24.9453 35.7745 28.5089C35.7745 28.9453 35.559 29.1634 35.128 29.1634C34.266 29.1634 33.4758 29.1634 32.6137 29.1634C32.039 29.1634 31.8953 29.018 31.8953 28.4362V19.418C31.8953 19.1271 31.8953 18.8362 31.8953 18.5453C31.9672 17.8907 31.5362 17.3089 30.9615 17.0907C30.3149 16.7998 29.5247 16.9453 29.0219 17.4544C28.5909 17.8907 28.3035 18.4725 28.3035 19.1271C28.2317 20.0725 28.2317 21.018 28.2317 22.0362C28.2317 24.218 28.2317 26.3271 28.2317 28.5089C28.2317 29.0907 28.088 29.2362 27.5133 29.2362C26.7231 29.2362 25.9329 29.2362 25.0709 29.2362C24.4962 29.2362 24.3525 29.0907 24.3525 28.5089C24.3525 25.5271 24.3525 22.618 24.3525 19.6362C24.3525 19.1998 24.2807 18.7634 24.2088 18.3271C24.137 17.5998 23.5623 17.0907 22.8439 17.018C22.0537 16.8725 21.3353 17.3089 21.048 18.0362C20.8325 18.7634 20.6888 19.5634 20.6888 20.3634C20.617 23.0544 20.6888 25.818 20.6888 28.5089C20.6888 29.1634 20.5451 29.3089 19.8986 29.3089C19.1084 29.3089 18.3182 29.3089 17.4562 29.3089C16.9533 29.3089 16.7378 29.0907 16.7378 28.5816C16.7378 23.8544 16.7378 19.1271 16.7378 14.3998C16.7378 13.8907 16.8815 13.6725 17.3843 13.6725C18.1745 13.6725 18.9647 13.6725 19.7549 13.6725C20.2578 13.6725 20.4015 13.818 20.4015 14.3271C20.4015 14.8362 20.4015 15.3453 20.4733 15.8544C21.048 14.3271 22.5566 13.3089 24.137 13.3089C26.0047 13.2362 27.1541 14.1816 27.8725 15.9271Z" fill="#080808"/>
<path fill-rule="evenodd" clip-rule="evenodd" d="M102.798 15.0545C103.373 14.6909 103.948 14.4 104.522 14.1091C105.815 13.4545 107.18 13.0909 108.617 13.0909C110.198 12.9454 111.634 13.8182 112.353 15.2C112.496 15.1272 112.64 15.0545 112.784 14.9091C114.58 13.6 116.735 12.9454 118.89 13.0182C120.973 13.0182 122.625 14.6182 122.697 16.7273C122.769 17.1636 122.769 17.6727 122.769 18.1091C122.769 21.4545 122.769 24.7273 122.769 28.0727C122.769 28.8727 122.625 29.0182 121.835 29.0182H120.47C119.824 29.0182 119.68 28.8727 119.68 28.2182C119.68 27.7818 119.68 27.3454 119.68 26.9818C119.68 24.1454 119.68 21.3818 119.68 18.5454C119.68 18.1091 119.608 17.6727 119.536 17.2363C119.393 16.2182 118.531 15.4909 117.525 15.4909C115.944 15.4909 114.436 15.9273 113.071 16.7273C112.927 16.8 112.855 16.9454 112.855 17.0909C112.855 20.7273 112.855 24.4363 112.855 28.0727C112.855 28.8727 112.712 29.0182 111.922 29.0182H110.629C109.91 29.0182 109.766 28.8727 109.766 28.1454C109.766 24.9454 109.766 21.6727 109.766 18.4727C109.766 18.0363 109.695 17.6 109.623 17.1636C109.479 16.1454 108.617 15.4909 107.611 15.4909C106.031 15.4182 104.522 15.8545 103.158 16.7273C103.014 16.8727 102.942 17.0909 102.942 17.3091C102.942 20.9454 102.942 24.5091 102.942 28.0727C102.942 28.9454 102.798 29.0182 102.008 29.0182H100.5C100.212 29.0909 99.9249 28.8727 99.853 28.5091C99.853 28.4363 99.853 28.4363 99.853 28.3636V28.0727V14.5454C99.853 13.6727 99.9249 13.6 100.787 13.6C101.146 13.6 101.505 13.6 101.864 13.6C102.224 13.6 102.511 13.8182 102.511 14.1091L102.798 15.0545Z" fill="#080808"/>
<path fill-rule="evenodd" clip-rule="evenodd" d="M46.6218 21.5997C45.7598 21.5997 44.8259 21.6724 44.0357 22.0361C42.7426 22.5452 42.0961 24.0724 42.599 25.3815C42.599 25.3815 42.599 25.4543 42.6708 25.4543C42.8863 26.0361 43.461 26.4724 44.1075 26.3997C45.1133 26.3997 45.9753 25.7452 46.3345 24.7997C46.6218 23.7815 46.7655 22.6906 46.6218 21.5997ZM47.1247 27.3452C46.9092 27.5633 46.6937 27.7088 46.4782 27.927C45.0414 29.2361 43.03 29.6724 41.2341 29.1633C39.51 28.7997 38.3606 27.2724 38.2888 25.527C38.0733 22.7633 39.3663 20.727 42.0243 19.9997C43.461 19.7088 44.8259 19.4179 46.2626 19.2724C46.3345 19.2724 46.4063 19.2724 46.6218 19.1997C46.6218 18.6179 46.55 17.9633 46.4782 17.3815C46.4063 17.0179 46.1908 16.727 45.9753 16.5088C44.9696 15.7815 43.5329 15.9997 42.7426 17.0179C42.6708 17.1633 42.5271 17.3088 42.4553 17.527C42.168 18.327 42.168 18.327 41.3777 18.2543C40.7312 18.1815 40.0128 18.1088 39.3663 18.0361C38.7916 17.9633 38.648 17.7452 38.7916 17.1633C39.1508 15.4906 40.3002 14.1815 41.8806 13.5997C43.6765 12.8724 45.6161 12.7997 47.412 13.3815C49.3516 13.7452 50.7165 15.5633 50.6447 17.527C50.7165 19.4906 50.7165 21.527 50.6447 23.4906C50.6447 24.4361 50.932 25.3815 51.5067 26.1088C52.0096 26.7633 52.0096 26.9088 51.3631 27.4179C50.7884 27.927 50.2855 28.3633 49.7108 28.8724C49.2079 29.3088 48.9924 29.3088 48.5614 28.8724C48.0586 28.4361 47.6275 27.927 47.1247 27.3452Z" fill="#080808"/>
<mask id="mask0_415_1393" style="mask-type:alpha" maskUnits="userSpaceOnUse" x="1" y="13" width="14" height="17">
<path fill-rule="evenodd" clip-rule="evenodd" d="M1.14941 13.0591H14.7266V29.35H1.14941V13.0591Z" fill="white"/>
</mask>
<g mask="url(#mask0_415_1393)">
<path fill-rule="evenodd" clip-rule="evenodd" d="M9.55451 21.4952C8.62063 21.6407 7.90226 21.7134 7.1839 21.8588C6.10634 22.077 5.31614 23.0952 5.31614 24.1861C5.17247 25.0588 5.60349 25.8588 6.32185 26.2952C7.11206 26.5861 8.04594 26.3679 8.62063 25.6407C8.97981 25.1316 9.26716 24.6225 9.339 24.0407C9.48267 23.1679 9.55451 22.2952 9.55451 21.4952ZM9.55451 19.2407C9.48267 18.5861 9.48267 18.0043 9.41083 17.4225C9.339 16.8407 8.90798 16.4043 8.40512 16.2588C7.1839 15.8225 5.819 16.4043 5.38798 17.5679C5.38798 17.6407 5.31614 17.7134 5.31614 17.7861C5.17247 18.2952 5.02879 18.3679 4.52594 18.2952C3.80757 18.2225 3.0892 18.1497 2.37083 18.077C1.7243 18.0043 1.58063 17.7861 1.7243 17.1316C2.08349 15.3861 3.37655 14.0043 5.02879 13.5679C6.68104 12.9861 8.54879 12.9134 10.2729 13.4225C12.2125 13.7861 13.5774 15.5316 13.5055 17.5679C13.5774 19.5316 13.5774 21.5679 13.5055 23.5316C13.5055 24.477 13.7929 25.4225 14.3676 26.1497C14.8704 26.8043 14.8704 26.9497 14.2239 27.5316C13.6492 28.0407 13.1463 28.477 12.5717 28.9861C12.1406 29.3497 11.9251 29.4225 11.4941 28.9861C10.9912 28.477 10.5602 27.8952 10.0574 27.3861C9.91369 27.5316 9.69818 27.7497 9.48267 27.8952C8.04594 29.2043 6.10634 29.7134 4.31043 29.2043C2.51451 28.8407 1.22145 27.3134 1.22145 25.4952C1.00594 22.5861 2.51451 20.5497 5.45981 19.8952C6.68104 19.6043 7.9741 19.5316 9.26716 19.3134C9.26716 19.3134 9.339 19.3134 9.55451 19.2407Z" fill="#080808"/>
</g>
<path fill-rule="evenodd" clip-rule="evenodd" d="M84.8391 15.9999C84.9828 15.709 85.1264 15.3454 85.3419 15.0545C86.2758 13.5272 87.7126 12.9454 89.5803 13.309C91.1607 13.5999 92.3101 14.8363 92.5256 16.4363C92.6693 17.309 92.7411 18.1817 92.7411 19.0545C92.7411 22.109 92.7411 25.2363 92.7411 28.2908C92.7411 28.9454 92.5975 29.0908 91.9509 29.0908C91.1607 29.0908 90.3705 29.0908 89.5803 29.0908C89.0056 29.0908 88.8619 28.9454 88.8619 28.3635C88.8619 25.5999 88.8619 22.7635 88.8619 19.9272C88.8619 19.3454 88.7901 18.8363 88.7183 18.2545C88.6464 17.5272 88.1436 16.8726 87.3534 16.7999C86.5632 16.7272 85.8448 17.0908 85.4856 17.8181C85.1264 18.5454 84.9109 19.4181 84.9828 20.2908C84.9828 22.909 84.9828 25.5272 84.9828 28.1454C84.9828 28.9454 84.8391 29.0908 84.0489 29.0908C83.2587 29.0908 82.5403 29.0908 81.7501 29.0908C81.2472 29.0908 81.0317 28.9454 81.0317 28.3635C81.0317 23.709 81.0317 19.0545 81.0317 14.4726C81.0317 13.6726 81.1754 13.5272 81.8938 13.5272C82.6121 13.5272 83.2587 13.5272 83.977 13.5272C84.5517 13.5272 84.6954 13.6726 84.6954 14.2545V15.9999H84.8391Z" fill="#080808"/>
<path fill-rule="evenodd" clip-rule="evenodd" d="M74.854 21.4542H74.7822C74.7822 21.1633 74.7822 20.9451 74.7822 20.6542C74.7104 19.5633 74.4948 18.5451 74.2793 17.527C74.0638 16.5815 73.13 16.0724 72.1961 16.2906C72.1242 16.2906 72.1242 16.2906 72.0524 16.2906C71.1904 16.5088 70.6157 17.2361 70.5438 18.1088C70.1846 19.927 70.1128 21.8179 70.4002 23.6361C70.5438 24.3633 70.7593 25.0179 71.0467 25.6724C71.4059 26.327 72.1961 26.6179 72.8426 26.3997C73.7046 26.1815 74.2793 25.4542 74.3512 24.5815C74.6385 23.4906 74.7104 22.4724 74.854 21.4542ZM66.09 21.3088C66.0181 19.6361 66.3773 18.0361 67.1675 16.5815C68.1014 14.6179 70.041 13.3088 72.1961 13.3088C74.423 13.0906 76.5781 14.1815 77.6557 16.1451C79.5234 19.1997 79.5953 23.0542 77.8712 26.1815C76.7936 28.5088 74.3512 29.8179 71.9087 29.4542C69.3944 29.2361 67.814 27.7088 66.8802 25.4542C66.3055 24.0724 66.0181 22.6906 66.09 21.3088Z" fill="#080808"/>
<path fill-rule="evenodd" clip-rule="evenodd" d="M38.1452 40.7273C29.5966 40.7273 21.2636 37.6727 14.7264 32C14.5109 31.8546 14.2954 31.6364 14.1517 31.4182C14.0081 31.2727 14.0081 31.0546 14.0799 30.8364C14.1517 30.6909 14.4391 30.6909 14.5828 30.6909C14.7264 30.6909 14.7983 30.7636 14.9419 30.8364C20.1142 33.7455 25.7175 35.7091 31.5362 36.5818C35.6309 37.2364 39.8693 37.3091 43.964 36.8C48.4179 36.2909 52.7281 35.1273 56.8228 33.4546C57.0383 33.3818 57.1819 33.3091 57.3975 33.3091C57.6848 33.2364 58.044 33.4546 58.1877 33.7455C58.3313 34.0364 58.1877 34.4 57.9003 34.6182C57.613 34.8364 57.3256 35.0546 57.0383 35.2727C53.7338 37.4546 50.0701 38.9818 46.1909 39.7818C43.6048 40.4364 40.875 40.7273 38.1452 40.7273Z" fill="#080808"/>
<path fill-rule="evenodd" clip-rule="evenodd" d="M136.992 27.4905C135.843 28.3633 134.478 29.0178 133.041 29.3815C131.892 29.6724 130.671 29.6724 129.521 29.3815C127.941 28.9451 126.863 27.5633 126.72 25.9633C126.648 25.5269 126.648 25.0178 126.648 24.5815C126.648 21.236 126.648 17.8905 126.648 14.6178C126.648 13.8178 126.792 13.6724 127.582 13.6724C128.085 13.6724 128.588 13.6724 129.019 13.6724C129.521 13.6724 129.665 13.8178 129.665 14.3996C129.665 15.636 129.665 16.7996 129.665 18.036C129.665 20.2905 129.665 22.4724 129.737 24.7269C129.809 26.4724 130.743 27.2724 132.467 27.2724C133.975 27.1996 135.412 26.7633 136.633 25.8905C136.777 25.7451 136.849 25.5269 136.849 25.3815C136.849 21.8178 136.849 18.2542 136.849 14.6905C136.849 13.8905 136.921 13.7451 137.783 13.7451C138.286 13.7451 138.788 13.7451 139.219 13.7451C139.65 13.7451 139.866 13.8905 139.866 14.3996C139.866 19.1269 139.866 23.8542 139.866 28.6542C139.866 29.1633 139.722 29.3087 139.219 29.3087C138.788 29.3087 138.357 29.3087 137.998 29.3087C137.639 29.3815 137.28 29.0905 137.208 28.7269C137.208 28.7269 137.208 28.7269 137.208 28.6542C137.136 28.1451 137.064 27.8542 136.992 27.4905Z" fill="#080808"/>
<path fill-rule="evenodd" clip-rule="evenodd" d="M58.9778 24C60.4864 24 62.0668 24.2182 63.4317 24.8C63.6472 24.8727 63.8627 25.0182 64.1501 25.1637C64.5093 25.3091 64.7248 25.6727 64.7248 26.1091C64.7248 26.7637 64.7248 27.4909 64.7248 28.1455C64.7248 28.7273 64.3656 28.8727 63.8627 28.6546C60.8456 27.1273 57.2538 27.1273 54.3085 28.6546C53.8774 28.8727 53.5183 28.6546 53.5183 28.1455C53.4464 27.3455 53.5183 26.5455 53.5183 25.6727C53.5901 25.2364 53.7338 24.8 54.0211 24.3637C55.6734 21.8909 57.3974 19.4909 59.1215 17.0182C59.1934 16.8727 59.2652 16.7273 59.4089 16.5091H58.4032H54.6676C54.1648 16.5091 53.9493 16.3637 53.9493 15.7818C53.9493 15.2 53.9493 14.6182 53.9493 14.0364C53.9493 13.5273 54.1648 13.3818 54.5958 13.3818C57.6129 13.3818 60.6301 13.3818 63.6472 13.3818C64.1501 13.3818 64.2938 13.5273 64.3656 14.0364C64.5093 15.2727 64.1501 16.5091 63.3599 17.5273C61.9232 19.4182 60.5583 21.4546 59.1934 23.4182C59.1934 23.7091 59.1215 23.7818 58.9778 24Z" fill="#080808"/>
<path fill-rule="evenodd" clip-rule="evenodd" d="M148.63 13.0908C149.923 13.0908 151.145 13.309 152.366 13.7454C153.012 13.9635 153.156 14.109 153.156 14.8363V15.4908C153.156 16.0726 152.94 16.2181 152.438 16.0726C151.791 15.9272 151.145 15.709 150.426 15.6363C149.42 15.4181 148.343 15.4181 147.337 15.6363C146.547 15.7817 145.972 16.3635 145.901 17.1635C145.685 17.9635 146.188 18.8363 146.978 19.1272C148.056 19.6363 149.133 19.9999 150.211 20.509C150.857 20.7999 151.504 21.0908 152.15 21.3817C154.808 22.8363 154.377 26.4726 152.94 27.8545C152.007 28.7999 150.785 29.309 149.564 29.4545C147.553 29.7454 145.541 29.5272 143.674 28.7999C142.955 28.509 142.883 28.3635 142.812 27.6363C142.812 26.2545 142.812 26.2545 144.105 26.6181C145.613 27.1272 147.265 27.2726 148.846 27.1272C149.349 27.0545 149.852 26.909 150.354 26.6181C151.36 26.0363 151.647 24.0726 150.283 23.4181C149.133 22.909 147.912 22.4726 146.763 21.9635C146.188 21.7454 145.613 21.5272 145.11 21.2363C143.674 20.4363 142.812 18.8363 143.027 17.1635C143.171 15.6363 144.105 14.3272 145.541 13.7454C146.403 13.309 147.481 13.0908 148.63 13.0908Z" fill="#080808"/>
<mask id="mask1_415_1393" style="mask-type:alpha" maskUnits="userSpaceOnUse" x="162" y="13" width="13" height="17">
<path fill-rule="evenodd" clip-rule="evenodd" d="M162.782 13.2773H174.42V29.5683H162.782V13.2773Z" fill="white"/>
</mask>
<g mask="url(#mask1_415_1393)">
<path fill-rule="evenodd" clip-rule="evenodd" d="M170.253 29.5684C169.247 29.423 168.314 29.2775 167.38 28.9866C165.44 28.4048 163.931 26.8048 163.357 24.8412C162.71 22.6593 162.638 20.3321 163.285 18.1502C164.003 15.4593 166.302 13.5684 169.032 13.3502C170.54 13.1321 172.049 13.3502 173.486 13.7866C174.06 14.0048 174.204 14.1502 174.276 14.8048C174.276 15.0957 174.276 15.3139 174.276 15.6048C174.204 16.1866 174.06 16.3321 173.558 16.1866C172.48 15.8957 171.331 15.7502 170.253 15.823C169.032 15.823 167.811 16.3321 167.02 17.3502C166.589 18.0048 166.302 18.7321 166.23 19.5321C166.015 20.9866 166.015 22.5139 166.374 23.9684C166.733 25.6412 168.098 26.8775 169.822 26.9502C171.115 27.0957 172.336 26.9502 173.558 26.5866C174.348 26.3684 174.491 26.4412 174.491 27.3139C174.491 28.623 174.491 28.7684 173.198 29.0593C172.121 29.2775 171.187 29.423 170.253 29.5684Z" fill="#080808"/>
</g>
<path fill-rule="evenodd" clip-rule="evenodd" d="M159.621 21.3087V28.2905C159.621 28.9451 159.478 29.0905 158.831 29.0905H157.394C156.676 29.0905 156.532 28.9451 156.532 28.2905C156.532 26.6178 156.532 24.8723 156.532 23.1996V14.5451C156.532 13.6723 156.604 13.5996 157.466 13.5996C157.969 13.5996 158.4 13.5996 158.903 13.5996C159.478 13.5996 159.621 13.7451 159.621 14.3269C159.621 16.6542 159.621 18.9814 159.621 21.3087Z" fill="#080808"/>
<path fill-rule="evenodd" clip-rule="evenodd" d="M59.3373 29.6724C60.0557 29.8178 60.9177 29.8905 61.7079 30.036C62.4981 30.1815 62.6418 30.4724 62.6418 31.2724C62.6418 32.7269 62.2826 34.1087 61.7079 35.4178C61.2769 36.5087 60.6304 37.4542 59.7683 38.3269C59.6965 38.4724 59.5528 38.5451 59.4092 38.6178C59.2655 38.6905 59.05 38.6905 58.8345 38.6905C58.7626 38.5451 58.7626 38.3269 58.8345 38.1815C59.2655 36.7996 59.7684 35.4905 60.1994 34.1087C60.2712 33.7451 60.343 33.3087 60.343 32.9451C60.343 32.2905 60.1994 31.9996 59.5528 31.9269C58.619 31.7815 57.7569 31.7815 56.823 31.7815C55.8892 31.7815 55.0271 31.9269 54.0933 31.9996C53.8777 31.9996 53.7341 31.9269 53.5186 31.8542C53.5904 31.636 53.6622 31.4178 53.8059 31.2724C54.7398 30.6178 55.8892 30.1815 57.0386 29.9633C57.6851 29.8178 58.4753 29.8178 59.3373 29.6724Z" fill="#080808"/>
<path fill-rule="evenodd" clip-rule="evenodd" d="M158.184 7.12708C159.118 7.05436 159.98 7.7089 160.052 8.72708C160.052 8.79981 160.052 8.94526 160.052 9.01799C160.052 10.0362 159.334 10.8362 158.328 10.8362C158.256 10.8362 158.184 10.8362 158.112 10.8362C157.179 10.9089 156.317 10.1816 156.245 9.23617C156.245 9.16345 156.245 9.09072 156.245 8.94526C156.173 7.99981 156.891 7.19981 157.825 7.12708C157.969 7.12708 158.041 7.12708 158.184 7.12708Z" fill="#080808"/>
</svg>
