<svg width="155" height="46" viewBox="0 0 155 46" fill="none" xmlns="http://www.w3.org/2000/svg">
<g clip-path="url(#clip0_415_1313)">
<mask id="mask0_415_1313" style="mask-type:alpha" maskUnits="userSpaceOnUse" x="0" y="0" width="155" height="46">
<path d="M155 0.5H0V45.5H155V0.5Z" fill="white"/>
</mask>
<g mask="url(#mask0_415_1313)">
<path fill-rule="evenodd" clip-rule="evenodd" d="M152.589 19.2685H151.927V20.081H152.589C152.918 20.081 153.117 19.9255 153.117 19.6736C153.117 19.4217 152.916 19.2662 152.588 19.2662L152.589 19.2685ZM153.02 20.4271L153.739 21.3962H153.132L152.482 20.5077H151.927V21.3962H151.418V18.827H152.61C153.233 18.827 153.64 19.1323 153.64 19.6464C153.656 20.0208 153.395 20.3499 153.023 20.4271H153.02ZM152.455 17.9725C151.213 17.9884 150.217 18.9893 150.234 20.2104C150.249 21.4314 151.267 22.4084 152.511 22.3937C153.745 22.3789 154.736 21.3883 154.731 20.1752C154.728 18.953 153.716 17.9669 152.471 17.9703C152.466 17.9703 152.46 17.9703 152.453 17.9703L152.455 17.9725ZM152.44 22.6377C151.063 22.6048 149.971 21.479 150.006 20.1241C150.04 18.7692 151.184 17.6968 152.564 17.7308C153.915 17.7626 154.994 18.8463 155 20.1752C154.997 21.5381 153.871 22.6388 152.485 22.6365C152.469 22.6365 152.454 22.6365 152.438 22.6354L152.44 22.6377ZM120.758 10.8495C119.355 10.8778 118.241 12.0183 118.269 13.3971C118.298 14.7758 119.459 15.8698 120.86 15.8414C122.244 15.8142 123.35 14.7055 123.35 13.346C123.337 11.9536 122.178 10.8347 120.761 10.8472H120.757L120.758 10.8495ZM122.544 17.7592H118.928C118.783 17.7592 118.664 17.8727 118.662 18.0145V33.1867C118.664 33.3296 118.782 33.4431 118.928 33.442H122.544C122.689 33.4431 122.808 33.3296 122.811 33.1867V18.0145C122.808 17.8727 122.688 17.7581 122.544 17.7603V17.7592ZM130.584 17.774V17.2928C130.584 15.8789 131.148 15.2502 132.41 15.2502C133.107 15.2581 133.796 15.3796 134.451 15.6111C134.53 15.6372 134.618 15.6247 134.686 15.5759C134.756 15.5293 134.797 15.4522 134.797 15.3693V12.4382C134.797 12.3247 134.72 12.2248 134.61 12.1942C133.636 11.9082 132.624 11.7687 131.607 11.7789C128.269 11.7789 126.5 13.5877 126.5 17.008V17.7445H124.762C124.618 17.7445 124.501 17.8568 124.499 17.9986V21.0036C124.501 21.1454 124.618 21.2589 124.762 21.2578H126.5V33.1867C126.501 33.3296 126.62 33.4431 126.765 33.442H126.766H130.381C130.525 33.4443 130.643 33.3319 130.645 33.1901V33.1867V21.2555H134.022L139.195 33.1833C138.61 34.4315 138.031 34.6846 137.244 34.6846C136.543 34.6687 135.857 34.4815 135.247 34.1399C135.184 34.1092 135.109 34.1024 135.04 34.1206C134.969 34.1433 134.913 34.1932 134.883 34.2579L133.656 36.8452C133.596 36.9678 133.648 37.1153 133.771 37.1754C134.952 37.8177 136.282 38.1457 137.632 38.1264C140.301 38.1264 141.779 36.9281 143.079 33.7098L149.353 18.1189C149.387 18.0406 149.376 17.951 149.325 17.8818C149.276 17.8114 149.197 17.7694 149.109 17.7683H145.345C145.232 17.7672 145.131 17.8364 145.093 17.9396L141.227 28.5363L137.005 17.9362C136.964 17.8375 136.867 17.7728 136.759 17.7717H130.579L130.584 17.774ZM116.719 17.7592H112.736V13.8385C112.735 13.6967 112.619 13.5832 112.474 13.5843H108.857C108.712 13.5843 108.593 13.6967 108.592 13.8385V17.7513H106.855C106.71 17.7513 106.592 17.8659 106.591 18.0066V20.9956C106.594 21.1363 106.711 21.251 106.855 21.2498H108.592V28.9857C108.592 32.1097 110.209 33.695 113.401 33.695C114.583 33.7234 115.751 33.4431 116.787 32.8837C116.87 32.8405 116.922 32.7554 116.921 32.6635V29.8163C116.92 29.7278 116.872 29.6473 116.796 29.6007C116.719 29.5542 116.622 29.5508 116.539 29.5905C115.882 29.9185 115.153 30.0864 114.415 30.0819C113.261 30.0819 112.736 29.5735 112.736 28.4398V21.251H116.719C116.862 21.2521 116.979 21.1375 116.98 20.9968V18.0077C116.983 17.8704 116.871 17.7558 116.73 17.7535H116.721L116.719 17.7592ZM97.6474 30.2589C95.136 30.2623 93.0992 28.2651 93.0946 25.7981C93.0946 25.7322 93.0957 25.6653 93.0992 25.5995C92.963 23.1937 94.8369 21.1363 97.286 21.0036C97.3853 20.9979 97.4869 20.9956 97.5873 20.9968C100.106 20.9854 102.155 22.9815 102.168 25.4565C102.168 25.5234 102.167 25.5904 102.163 25.6573C102.29 28.0699 100.404 30.1261 97.9499 30.251C97.8483 30.2555 97.7467 30.2578 97.6462 30.2555L97.6474 30.2589ZM97.6474 17.4358C93.0519 17.6174 89.4782 21.4257 89.663 25.9399C89.8477 30.4552 93.7227 33.9685 98.3171 33.7858C102.787 33.6099 106.315 29.9934 106.307 25.5961C106.233 21.0161 102.393 17.3609 97.7328 17.4347C97.7039 17.4347 97.6751 17.4358 97.6474 17.4358ZM83.6218 25.5961C83.6218 28.3196 81.876 30.2271 79.3716 30.2271C76.7701 30.0149 74.8349 27.7703 75.0509 25.2125C75.2414 22.9486 77.0692 21.1534 79.3716 20.965C81.7744 21.0115 83.6819 22.9622 83.6357 25.3226C83.6334 25.4145 83.6288 25.5053 83.6218 25.5949V25.5961ZM80.2098 17.4358C78.2354 17.4063 76.3579 18.2744 75.1236 19.7882V18.0089C75.1225 17.8681 75.0058 17.7535 74.8615 17.7535H74.8603H71.2417C71.0985 17.7535 70.9807 17.8681 70.9807 18.0089V37.7826C70.9819 37.9233 71.0985 38.0368 71.2417 38.0368H74.8603C75.0035 38.0379 75.1213 37.9244 75.1236 37.7826V31.5412C76.4018 32.9835 78.2643 33.7949 80.2098 33.7552C83.9959 33.7552 87.8317 30.9523 87.8317 25.5972C87.8317 20.2421 84.004 17.4369 80.2098 17.4369V17.4358ZM62.6499 21.2668C58.6086 20.3409 57.8939 19.6906 57.8939 18.3243C57.8939 17.0341 59.1571 16.1682 61.0357 16.1682C63.0506 16.2363 64.9869 16.9444 66.5561 18.1859C66.675 18.271 66.8413 18.246 66.929 18.1291L68.9012 15.4556C68.9786 15.3466 68.9566 15.198 68.8515 15.1152C66.6496 13.3937 63.9062 12.4802 61.0946 12.5312C56.7323 12.5312 53.6864 15.0482 53.6864 18.6489C53.6864 22.5072 56.3155 23.878 60.8567 24.9333C64.719 25.7901 65.3726 26.5073 65.3726 27.7896C65.3726 29.2104 64.0551 30.0955 61.9306 30.0955C59.5335 30.0807 57.2334 29.1672 55.4992 27.54C55.4449 27.4968 55.3756 27.4741 55.3063 27.4787C55.2359 27.4832 55.1701 27.515 55.1239 27.5672L52.9116 30.0978C52.8204 30.2022 52.8308 30.361 52.9358 30.4518C55.3941 32.5841 58.5636 33.7529 61.8428 33.7361C66.5411 33.7361 69.5779 31.2655 69.5779 27.4435C69.5882 24.2184 67.578 22.4311 62.6603 21.2805L62.6499 21.2668ZM36.235 20.4418C28.6974 16.1297 16.2607 15.7393 9.05798 17.8398C7.91256 18.1836 6.69787 17.5595 6.33069 16.4383C5.98891 15.3296 6.62744 14.1585 7.75668 13.8238C7.76708 13.8204 7.77747 13.817 7.78901 13.8135C16.0517 11.401 29.7886 11.8685 38.4692 16.823C39.4842 17.3881 39.841 18.6557 39.2659 19.6532C39.2555 19.6713 39.2452 19.6895 39.2348 19.7065C38.6032 20.7131 37.2695 21.0399 36.2327 20.443L36.235 20.4418ZM35.9902 26.8194C35.451 27.6478 34.339 27.9042 33.4823 27.3981C27.1929 23.6817 17.6093 22.6048 10.1711 24.7767C9.21501 25.0604 8.20353 24.5407 7.89524 23.6079C7.6112 22.6819 8.14465 21.7049 9.088 21.4268C9.09492 21.4246 9.10301 21.4223 9.11109 21.42C17.607 18.9417 28.1628 20.1411 35.3898 24.4091C36.2281 24.8948 36.5086 25.9558 36.0156 26.7796C36.0064 26.7933 35.9983 26.808 35.9902 26.8205V26.8194ZM33.1267 32.9472C32.6971 33.6122 31.8069 33.8176 31.121 33.4125C25.6272 30.1851 18.7143 29.4555 10.5671 31.2439C9.79002 31.4198 9.01294 30.9489 8.82358 30.1874C8.64923 29.4339 9.13072 28.6838 9.89856 28.5125C9.90549 28.5113 9.91242 28.5102 9.91934 28.5079C18.8309 26.5504 26.4736 27.3936 32.6417 31.0169C33.3137 31.4028 33.54 32.2516 33.1474 32.912C33.1405 32.9245 33.1336 32.9359 33.1267 32.9472ZM22.3988 0.501342C9.75654 0.771422 -0.26929 11.0628 0.00551698 23.4876C0.280324 35.9113 10.7518 45.7647 23.393 45.4946C35.8424 45.2279 45.792 35.235 45.7909 22.9974C45.6512 10.4376 35.1785 0.366302 22.3988 0.501342Z" fill="#080808"/>
</g>
</g>
<defs>
<clipPath id="clip0_415_1313">
<rect width="155" height="45" fill="white" transform="translate(0 0.5)"/>
</clipPath>
</defs>
</svg>
